<mxfile host="app.diagrams.net" modified="2021-06-04T15:53:39.806Z" agent="5.0 (Windows NT 10.0; Win64; x64) AppleWebKit/537.36 (KHTML, like Gecko) Chrome/91.0.4472.77 Safari/537.36" etag="6eldLKvJhfMdiduNFgpg" version="14.7.6" type="github">
  <diagram id="QsEkxKzfpSg2MEQ44GEc" name="Page-1">
    <mxGraphModel dx="1063" dy="664" grid="1" gridSize="10" guides="1" tooltips="1" connect="1" arrows="1" fold="1" page="0" pageScale="1" pageWidth="850" pageHeight="1100" math="0" shadow="0">
      <root>
        <mxCell id="0" />
        <mxCell id="1" parent="0" />
        <mxCell id="zgLPppWvpR13mUtz7S9A-81" value="alt" style="shape=umlFrame;whiteSpace=wrap;html=1;width=40;height=20;" parent="1" vertex="1">
          <mxGeometry x="940" y="550" width="669" height="940" as="geometry" />
        </mxCell>
        <mxCell id="zgLPppWvpR13mUtz7S9A-91" value="break" style="shape=umlFrame;whiteSpace=wrap;html=1;width=40;height=19;" parent="1" vertex="1">
          <mxGeometry x="1329" y="820" width="265" height="70" as="geometry" />
        </mxCell>
        <mxCell id="zgLPppWvpR13mUtz7S9A-96" value="break" style="shape=umlFrame;whiteSpace=wrap;html=1;width=40;height=19;" parent="1" vertex="1">
          <mxGeometry x="1335" y="724" width="250" height="50" as="geometry" />
        </mxCell>
        <mxCell id="zgLPppWvpR13mUtz7S9A-86" value="break" style="shape=umlFrame;whiteSpace=wrap;html=1;width=40;height=19;" parent="1" vertex="1">
          <mxGeometry x="1335" y="650" width="250" height="40" as="geometry" />
        </mxCell>
        <mxCell id="zgLPppWvpR13mUtz7S9A-83" value="break" style="shape=umlFrame;whiteSpace=wrap;html=1;width=40;height=19;" parent="1" vertex="1">
          <mxGeometry x="1335" y="560" width="250" height="59.21" as="geometry" />
        </mxCell>
        <mxCell id="zgLPppWvpR13mUtz7S9A-66" value="manager" style="shape=umlLifeline;participant=umlActor;perimeter=lifelinePerimeter;whiteSpace=wrap;html=1;container=1;collapsible=0;recursiveResize=0;verticalAlign=top;spacingTop=36;outlineConnect=0;" parent="1" vertex="1">
          <mxGeometry x="-110" y="40" width="20" height="800" as="geometry" />
        </mxCell>
        <mxCell id="zgLPppWvpR13mUtz7S9A-65" value="presentationController:&lt;br&gt;PresentationController" style="shape=umlLifeline;perimeter=lifelinePerimeter;whiteSpace=wrap;html=1;container=1;collapsible=0;recursiveResize=0;outlineConnect=0;" parent="1" vertex="1">
          <mxGeometry x="10" y="50" width="140" height="790" as="geometry" />
        </mxCell>
        <mxCell id="zgLPppWvpR13mUtz7S9A-64" value="menuPrinter:&lt;br&gt;MenuPrinter" style="shape=umlLifeline;perimeter=lifelinePerimeter;whiteSpace=wrap;html=1;container=1;collapsible=0;recursiveResize=0;outlineConnect=0;" parent="1" vertex="1">
          <mxGeometry x="230" y="50" width="100" height="1470" as="geometry" />
        </mxCell>
        <mxCell id="zgLPppWvpR13mUtz7S9A-3" value="" style="endArrow=none;dashed=1;html=1;entryX=0.5;entryY=1;entryDx=0;entryDy=0;" parent="1" source="zgLPppWvpR13mUtz7S9A-14" edge="1">
          <mxGeometry width="50" height="50" relative="1" as="geometry">
            <mxPoint x="-100" y="568.4000244140625" as="sourcePoint" />
            <mxPoint x="-100" y="90" as="targetPoint" />
          </mxGeometry>
        </mxCell>
        <mxCell id="zgLPppWvpR13mUtz7S9A-10" value="" style="endArrow=none;dashed=1;html=1;entryX=0.5;entryY=1;entryDx=0;entryDy=0;" parent="1" source="zgLPppWvpR13mUtz7S9A-16" edge="1">
          <mxGeometry width="50" height="50" relative="1" as="geometry">
            <mxPoint x="79.5" y="568.4000244140625" as="sourcePoint" />
            <mxPoint x="79.5" y="90" as="targetPoint" />
          </mxGeometry>
        </mxCell>
        <mxCell id="zgLPppWvpR13mUtz7S9A-14" value="" style="html=1;points=[];perimeter=orthogonalPerimeter;" parent="1" vertex="1">
          <mxGeometry x="-105" y="105" width="10" height="1415" as="geometry" />
        </mxCell>
        <mxCell id="zgLPppWvpR13mUtz7S9A-16" value="" style="html=1;points=[];perimeter=orthogonalPerimeter;" parent="1" vertex="1">
          <mxGeometry x="75" y="105" width="10" height="1415" as="geometry" />
        </mxCell>
        <mxCell id="zgLPppWvpR13mUtz7S9A-22" value="" style="html=1;points=[];perimeter=orthogonalPerimeter;" parent="1" vertex="1">
          <mxGeometry x="275" y="109" width="10" height="141" as="geometry" />
        </mxCell>
        <mxCell id="zgLPppWvpR13mUtz7S9A-23" value="" style="html=1;verticalAlign=bottom;endArrow=block;entryX=0;entryY=0;" parent="1" target="zgLPppWvpR13mUtz7S9A-22" edge="1">
          <mxGeometry relative="1" as="geometry">
            <mxPoint x="90" y="109" as="sourcePoint" />
          </mxGeometry>
        </mxCell>
        <mxCell id="Tm_WAI8Zphne7SwSvi-d-1" value="date=:schedule()" style="edgeLabel;html=1;align=center;verticalAlign=middle;resizable=0;points=[];" parent="zgLPppWvpR13mUtz7S9A-23" vertex="1" connectable="0">
          <mxGeometry x="-0.1213" y="8" relative="1" as="geometry">
            <mxPoint as="offset" />
          </mxGeometry>
        </mxCell>
        <mxCell id="zgLPppWvpR13mUtz7S9A-29" value="date=:getDateDetails()" style="html=1;verticalAlign=bottom;endArrow=block;entryX=1;entryY=0;" parent="1" edge="1">
          <mxGeometry x="0.3295" y="-5" relative="1" as="geometry">
            <mxPoint x="270" y="135" as="sourcePoint" />
            <mxPoint x="-95" y="135" as="targetPoint" />
            <mxPoint as="offset" />
          </mxGeometry>
        </mxCell>
        <mxCell id="zgLPppWvpR13mUtz7S9A-67" value="facadeService:&lt;br&gt;FacadeService" style="shape=umlLifeline;perimeter=lifelinePerimeter;whiteSpace=wrap;html=1;container=1;collapsible=0;recursiveResize=0;outlineConnect=0;" parent="1" vertex="1">
          <mxGeometry x="960" y="50" width="100" height="1470" as="geometry" />
        </mxCell>
        <mxCell id="zgLPppWvpR13mUtz7S9A-68" value="" style="html=1;points=[];perimeter=orthogonalPerimeter;" parent="zgLPppWvpR13mUtz7S9A-67" vertex="1">
          <mxGeometry x="45" y="360" width="10" height="1110" as="geometry" />
        </mxCell>
        <mxCell id="zgLPppWvpR13mUtz7S9A-69" value="addEmployeeToShift(role, ID, date, shift)" style="html=1;verticalAlign=bottom;endArrow=block;" parent="1" target="zgLPppWvpR13mUtz7S9A-67" edge="1">
          <mxGeometry relative="1" as="geometry">
            <mxPoint x="180" y="430" as="sourcePoint" />
            <Array as="points">
              <mxPoint x="90" y="430" />
            </Array>
          </mxGeometry>
        </mxCell>
        <mxCell id="zgLPppWvpR13mUtz7S9A-70" value="responseT" style="html=1;verticalAlign=bottom;endArrow=open;dashed=1;endSize=8;entryX=1.218;entryY=0.985;entryDx=0;entryDy=0;entryPerimeter=0;" parent="1" target="zgLPppWvpR13mUtz7S9A-16" edge="1">
          <mxGeometry relative="1" as="geometry">
            <mxPoint x="90" y="752" as="targetPoint" />
            <Array as="points" />
            <mxPoint x="1003" y="1500" as="sourcePoint" />
          </mxGeometry>
        </mxCell>
        <mxCell id="zgLPppWvpR13mUtz7S9A-71" value="shiftService:&lt;br&gt;ShiftService" style="shape=umlLifeline;perimeter=lifelinePerimeter;whiteSpace=wrap;html=1;container=1;collapsible=0;recursiveResize=0;outlineConnect=0;" parent="1" vertex="1">
          <mxGeometry x="1180" y="50" width="100" height="1470" as="geometry" />
        </mxCell>
        <mxCell id="zgLPppWvpR13mUtz7S9A-75" value="" style="html=1;points=[];perimeter=orthogonalPerimeter;" parent="zgLPppWvpR13mUtz7S9A-71" vertex="1">
          <mxGeometry x="45" y="390" width="10" height="1080" as="geometry" />
        </mxCell>
        <mxCell id="zgLPppWvpR13mUtz7S9A-73" value="Singleton ShiftController: instance" style="shape=umlLifeline;perimeter=lifelinePerimeter;whiteSpace=wrap;html=1;container=1;collapsible=0;recursiveResize=0;outlineConnect=0;" parent="1" vertex="1">
          <mxGeometry x="1410" y="50" width="170" height="1470" as="geometry" />
        </mxCell>
        <mxCell id="zgLPppWvpR13mUtz7S9A-78" value="" style="html=1;points=[];perimeter=orthogonalPerimeter;" parent="zgLPppWvpR13mUtz7S9A-73" vertex="1">
          <mxGeometry x="80" y="480" width="10" height="990" as="geometry" />
        </mxCell>
        <mxCell id="zgLPppWvpR13mUtz7S9A-79" value="addEmployeeToShift(role, ID, date, shift)" style="html=1;verticalAlign=bottom;endArrow=block;entryX=0.383;entryY=0.01;entryDx=0;entryDy=0;entryPerimeter=0;" parent="1" target="zgLPppWvpR13mUtz7S9A-78" edge="1">
          <mxGeometry relative="1" as="geometry">
            <mxPoint x="1240" y="541" as="sourcePoint" />
          </mxGeometry>
        </mxCell>
        <mxCell id="zgLPppWvpR13mUtz7S9A-82" value="[exception]" style="text;html=1;align=center;verticalAlign=middle;resizable=0;points=[];autosize=1;" parent="1" vertex="1">
          <mxGeometry x="937" y="570.79" width="70" height="20" as="geometry" />
        </mxCell>
        <mxCell id="zgLPppWvpR13mUtz7S9A-84" value="[date&amp;lt;today]" style="text;html=1;align=center;verticalAlign=middle;resizable=0;points=[];autosize=1;" parent="1" vertex="1">
          <mxGeometry x="1380" y="560" width="80" height="20" as="geometry" />
        </mxCell>
        <mxCell id="zgLPppWvpR13mUtz7S9A-87" value="[date=Shabbat]" style="text;html=1;align=center;verticalAlign=middle;resizable=0;points=[];autosize=1;" parent="1" vertex="1">
          <mxGeometry x="1370" y="650" width="100" height="20" as="geometry" />
        </mxCell>
        <mxCell id="zgLPppWvpR13mUtz7S9A-88" value="exception(&quot;Super-Lee does not work at Shabbat&quot;)" style="html=1;verticalAlign=bottom;endArrow=open;dashed=1;endSize=8;" parent="1" edge="1">
          <mxGeometry relative="1" as="geometry">
            <mxPoint x="1500" y="685" as="sourcePoint" />
            <mxPoint x="1240" y="685" as="targetPoint" />
          </mxGeometry>
        </mxCell>
        <mxCell id="zgLPppWvpR13mUtz7S9A-92" value="exception(&quot;Employee is unavailable&quot;)" style="html=1;verticalAlign=bottom;endArrow=open;dashed=1;endSize=8;" parent="1" edge="1">
          <mxGeometry relative="1" as="geometry">
            <mxPoint x="1500" y="875" as="sourcePoint" />
            <mxPoint x="1240" y="875" as="targetPoint" />
          </mxGeometry>
        </mxCell>
        <mxCell id="zgLPppWvpR13mUtz7S9A-93" value="[constraints.containsKey(date)]" style="text;html=1;align=center;verticalAlign=middle;resizable=0;points=[];autosize=1;" parent="1" vertex="1">
          <mxGeometry x="1324" y="833" width="180" height="20" as="geometry" />
        </mxCell>
        <mxCell id="zgLPppWvpR13mUtz7S9A-97" value="[!isExist]" style="text;html=1;align=center;verticalAlign=middle;resizable=0;points=[];autosize=1;" parent="1" vertex="1">
          <mxGeometry x="1380" y="724" width="60" height="20" as="geometry" />
        </mxCell>
        <mxCell id="zgLPppWvpR13mUtz7S9A-98" value="exception(&quot;ID * and role * does not exist in system&quot;)" style="html=1;verticalAlign=bottom;endArrow=open;dashed=1;endSize=8;" parent="1" edge="1">
          <mxGeometry relative="1" as="geometry">
            <mxPoint x="1500" y="764" as="sourcePoint" />
            <mxPoint x="1240" y="764" as="targetPoint" />
          </mxGeometry>
        </mxCell>
        <mxCell id="zgLPppWvpR13mUtz7S9A-107" value="Singleton EmployeeController: instance" style="shape=umlLifeline;perimeter=lifelinePerimeter;whiteSpace=wrap;html=1;container=1;collapsible=0;recursiveResize=0;outlineConnect=0;" parent="1" vertex="1">
          <mxGeometry x="1630" y="50" width="170" height="1470" as="geometry" />
        </mxCell>
        <mxCell id="zgLPppWvpR13mUtz7S9A-114" value="isExist =: isExist(role, ID)" style="html=1;verticalAlign=bottom;endArrow=block;" parent="1" source="zgLPppWvpR13mUtz7S9A-73" target="zgLPppWvpR13mUtz7S9A-107" edge="1">
          <mxGeometry width="80" relative="1" as="geometry">
            <mxPoint x="1460" y="700" as="sourcePoint" />
            <mxPoint x="1540" y="700" as="targetPoint" />
            <Array as="points">
              <mxPoint x="1600" y="710" />
              <mxPoint x="1670" y="710" />
            </Array>
          </mxGeometry>
        </mxCell>
        <mxCell id="zgLPppWvpR13mUtz7S9A-141" value="break" style="shape=umlFrame;whiteSpace=wrap;html=1;width=40;height=19;" parent="1" vertex="1">
          <mxGeometry x="1330" y="1100" width="250" height="70" as="geometry" />
        </mxCell>
        <mxCell id="zgLPppWvpR13mUtz7S9A-142" value="exception(&quot;&lt;span style=&quot;color: rgb(3 , 47 , 98) ; font-family: , &amp;#34;consolas&amp;#34; , &amp;#34;liberation mono&amp;#34; , &amp;#34;menlo&amp;#34; , monospace ; font-size: 12px&quot;&gt;Employee is already manning the other shift of the day.&lt;/span&gt;&quot;)" style="html=1;verticalAlign=bottom;endArrow=open;dashed=1;endSize=8;" parent="1" edge="1">
          <mxGeometry relative="1" as="geometry">
            <mxPoint x="1498.5" y="1160" as="sourcePoint" />
            <mxPoint x="1230" y="1160" as="targetPoint" />
          </mxGeometry>
        </mxCell>
        <mxCell id="zgLPppWvpR13mUtz7S9A-143" value="[isWorking]" style="text;html=1;align=center;verticalAlign=middle;resizable=0;points=[];autosize=1;" parent="1" vertex="1">
          <mxGeometry x="1370" y="1100" width="70" height="20" as="geometry" />
        </mxCell>
        <mxCell id="Tm_WAI8Zphne7SwSvi-d-6" value="" style="html=1;points=[];perimeter=orthogonalPerimeter;" parent="1" vertex="1">
          <mxGeometry x="80" y="280" width="10" height="220" as="geometry" />
        </mxCell>
        <mxCell id="Tm_WAI8Zphne7SwSvi-d-7" value="HandleManagerScheduleChice)date, shift, choice" style="edgeStyle=orthogonalEdgeStyle;html=1;align=left;spacingLeft=2;endArrow=block;rounded=0;entryX=1;entryY=0;" parent="1" target="Tm_WAI8Zphne7SwSvi-d-6" edge="1">
          <mxGeometry relative="1" as="geometry">
            <mxPoint x="85" y="260" as="sourcePoint" />
            <Array as="points">
              <mxPoint x="115" y="260" />
            </Array>
          </mxGeometry>
        </mxCell>
        <mxCell id="Tm_WAI8Zphne7SwSvi-d-8" value="shift=:getInt()" style="html=1;verticalAlign=bottom;endArrow=block;entryX=1;entryY=0;" parent="1" edge="1">
          <mxGeometry x="0.3295" y="-5" relative="1" as="geometry">
            <mxPoint x="270" y="181" as="sourcePoint" />
            <mxPoint x="-95" y="181" as="targetPoint" />
            <mxPoint as="offset" />
          </mxGeometry>
        </mxCell>
        <mxCell id="Tm_WAI8Zphne7SwSvi-d-9" value="" style="html=1;verticalAlign=bottom;endArrow=block;entryX=0;entryY=0;" parent="1" edge="1">
          <mxGeometry relative="1" as="geometry">
            <mxPoint x="85" y="160" as="sourcePoint" />
            <mxPoint x="270" y="160.0000000000001" as="targetPoint" />
          </mxGeometry>
        </mxCell>
        <mxCell id="Tm_WAI8Zphne7SwSvi-d-10" value="shift=:shtshiftNum" style="edgeLabel;html=1;align=center;verticalAlign=middle;resizable=0;points=[];" parent="Tm_WAI8Zphne7SwSvi-d-9" vertex="1" connectable="0">
          <mxGeometry x="-0.1213" y="8" relative="1" as="geometry">
            <mxPoint as="offset" />
          </mxGeometry>
        </mxCell>
        <mxCell id="Tm_WAI8Zphne7SwSvi-d-12" value="choice=:getInt()" style="html=1;verticalAlign=bottom;endArrow=block;entryX=1;entryY=0;" parent="1" edge="1">
          <mxGeometry x="0.3295" y="-5" relative="1" as="geometry">
            <mxPoint x="270" y="231" as="sourcePoint" />
            <mxPoint x="-95" y="231" as="targetPoint" />
            <mxPoint as="offset" />
          </mxGeometry>
        </mxCell>
        <mxCell id="Tm_WAI8Zphne7SwSvi-d-13" value="" style="html=1;verticalAlign=bottom;endArrow=block;entryX=0;entryY=0;" parent="1" edge="1">
          <mxGeometry relative="1" as="geometry">
            <mxPoint x="85" y="210" as="sourcePoint" />
            <mxPoint x="270" y="210.0000000000001" as="targetPoint" />
          </mxGeometry>
        </mxCell>
        <mxCell id="Tm_WAI8Zphne7SwSvi-d-14" value="choice=:getChoice" style="edgeLabel;html=1;align=center;verticalAlign=middle;resizable=0;points=[];" parent="Tm_WAI8Zphne7SwSvi-d-13" vertex="1" connectable="0">
          <mxGeometry x="-0.1213" y="8" relative="1" as="geometry">
            <mxPoint as="offset" />
          </mxGeometry>
        </mxCell>
        <mxCell id="Tm_WAI8Zphne7SwSvi-d-16" value="" style="html=1;points=[];perimeter=orthogonalPerimeter;" parent="1" vertex="1">
          <mxGeometry x="85" y="330" width="10" height="150" as="geometry" />
        </mxCell>
        <mxCell id="Tm_WAI8Zphne7SwSvi-d-17" value="addEmployeeToShift(date, shift)" style="edgeStyle=orthogonalEdgeStyle;html=1;align=left;spacingLeft=2;endArrow=block;rounded=0;entryX=1;entryY=0;" parent="1" target="Tm_WAI8Zphne7SwSvi-d-16" edge="1">
          <mxGeometry relative="1" as="geometry">
            <mxPoint x="90" y="310" as="sourcePoint" />
            <Array as="points">
              <mxPoint x="120" y="310" />
            </Array>
          </mxGeometry>
        </mxCell>
        <mxCell id="Tm_WAI8Zphne7SwSvi-d-18" value="" style="html=1;points=[];perimeter=orthogonalPerimeter;" parent="1" vertex="1">
          <mxGeometry x="275" y="330" width="10" height="80" as="geometry" />
        </mxCell>
        <mxCell id="Tm_WAI8Zphne7SwSvi-d-19" value="ro" style="html=1;verticalAlign=bottom;endArrow=block;" parent="1" edge="1">
          <mxGeometry relative="1" as="geometry">
            <mxPoint x="95" y="350" as="sourcePoint" />
            <mxPoint x="280" y="350" as="targetPoint" />
          </mxGeometry>
        </mxCell>
        <mxCell id="Tm_WAI8Zphne7SwSvi-d-20" value="role=:roleMenu()" style="edgeLabel;html=1;align=center;verticalAlign=middle;resizable=0;points=[];" parent="Tm_WAI8Zphne7SwSvi-d-19" vertex="1" connectable="0">
          <mxGeometry x="-0.1213" y="8" relative="1" as="geometry">
            <mxPoint as="offset" />
          </mxGeometry>
        </mxCell>
        <mxCell id="Tm_WAI8Zphne7SwSvi-d-21" value="break" style="shape=umlFrame;whiteSpace=wrap;html=1;" parent="1" vertex="1">
          <mxGeometry x="-40" y="360" width="250" height="1150" as="geometry" />
        </mxCell>
        <mxCell id="Tm_WAI8Zphne7SwSvi-d-22" value="[role=Null]" style="text;html=1;align=center;verticalAlign=middle;resizable=0;points=[];autosize=1;strokeColor=none;" parent="1" vertex="1">
          <mxGeometry x="-40" y="395" width="70" height="20" as="geometry" />
        </mxCell>
        <mxCell id="Tm_WAI8Zphne7SwSvi-d-23" value="ID=:getString()" style="html=1;verticalAlign=bottom;endArrow=block;" parent="1" edge="1">
          <mxGeometry relative="1" as="geometry">
            <mxPoint x="95" y="389.58" as="sourcePoint" />
            <mxPoint x="280" y="389.58" as="targetPoint" />
          </mxGeometry>
        </mxCell>
        <mxCell id="Tm_WAI8Zphne7SwSvi-d-25" value="addEmployeeToShift(role, ID, date, shift)" style="html=1;verticalAlign=bottom;endArrow=block;" parent="1" target="zgLPppWvpR13mUtz7S9A-71" edge="1">
          <mxGeometry relative="1" as="geometry">
            <mxPoint x="1020" y="450" as="sourcePoint" />
            <mxPoint x="1176.9698079427083" y="450" as="targetPoint" />
            <Array as="points" />
          </mxGeometry>
        </mxCell>
        <mxCell id="Tm_WAI8Zphne7SwSvi-d-26" value="exception(&quot;the date has already passed&quot;)" style="html=1;verticalAlign=bottom;endArrow=open;dashed=1;endSize=8;" parent="1" edge="1">
          <mxGeometry relative="1" as="geometry">
            <mxPoint x="1490" y="590.79" as="sourcePoint" />
            <mxPoint x="1240" y="591" as="targetPoint" />
          </mxGeometry>
        </mxCell>
        <mxCell id="Tm_WAI8Zphne7SwSvi-d-28" value="employee =: getEmployee(ID)" style="html=1;verticalAlign=bottom;endArrow=block;" parent="1" target="zgLPppWvpR13mUtz7S9A-107" edge="1">
          <mxGeometry width="80" relative="1" as="geometry">
            <mxPoint x="1500" y="790" as="sourcePoint" />
            <mxPoint x="1724.5" y="720" as="targetPoint" />
            <Array as="points">
              <mxPoint x="1610" y="790" />
              <mxPoint x="1690" y="790" />
            </Array>
          </mxGeometry>
        </mxCell>
        <mxCell id="Tm_WAI8Zphne7SwSvi-d-30" value="Employee: employee" style="shape=umlLifeline;perimeter=lifelinePerimeter;whiteSpace=wrap;html=1;container=1;collapsible=0;recursiveResize=0;outlineConnect=0;" parent="1" vertex="1">
          <mxGeometry x="1821" y="760" width="170" height="760" as="geometry" />
        </mxCell>
        <mxCell id="Tm_WAI8Zphne7SwSvi-d-31" value="put(id, newEmployee)" style="html=1;verticalAlign=bottom;endArrow=block;" parent="Tm_WAI8Zphne7SwSvi-d-30" edge="1">
          <mxGeometry width="80" relative="1" as="geometry">
            <mxPoint x="-120.00000000000045" y="1490" as="sourcePoint" />
            <mxPoint x="553.5529641544117" y="1490" as="targetPoint" />
          </mxGeometry>
        </mxCell>
        <mxCell id="Tm_WAI8Zphne7SwSvi-d-32" value="save(newEmployee)" style="html=1;verticalAlign=bottom;endArrow=block;" parent="Tm_WAI8Zphne7SwSvi-d-30" edge="1">
          <mxGeometry x="-0.1755" width="80" relative="1" as="geometry">
            <mxPoint x="-120.00000000000045" y="1510" as="sourcePoint" />
            <mxPoint x="669.5" y="1510" as="targetPoint" />
            <mxPoint as="offset" />
          </mxGeometry>
        </mxCell>
        <mxCell id="Tm_WAI8Zphne7SwSvi-d-37" value="WeeklyShiftSchedule:&amp;nbsp;&lt;br&gt;weeklyShift" style="shape=umlLifeline;perimeter=lifelinePerimeter;whiteSpace=wrap;html=1;container=1;collapsible=0;recursiveResize=0;outlineConnect=0;" parent="1" vertex="1">
          <mxGeometry x="2020" y="920" width="170" height="600" as="geometry" />
        </mxCell>
        <mxCell id="Tm_WAI8Zphne7SwSvi-d-40" value="" style="html=1;points=[];perimeter=orthogonalPerimeter;" parent="1" vertex="1">
          <mxGeometry x="1495" y="920" width="10" height="30" as="geometry" />
        </mxCell>
        <mxCell id="Tm_WAI8Zphne7SwSvi-d-42" value="" style="html=1;points=[];perimeter=orthogonalPerimeter;" parent="1" vertex="1">
          <mxGeometry x="1710" y="700" width="10" height="820" as="geometry" />
        </mxCell>
        <mxCell id="Tm_WAI8Zphne7SwSvi-d-29" value="constraints=: getConstraints(ID)" style="html=1;verticalAlign=bottom;endArrow=block;" parent="1" edge="1">
          <mxGeometry width="80" relative="1" as="geometry">
            <mxPoint x="1501.9966666666664" y="816" as="sourcePoint" />
            <mxPoint x="1904.5" y="816" as="targetPoint" />
            <Array as="points">
              <mxPoint x="1617.33" y="816" />
              <mxPoint x="1697.33" y="816" />
            </Array>
          </mxGeometry>
        </mxCell>
        <mxCell id="Tm_WAI8Zphne7SwSvi-d-41" value="weeklyShift=:getWeeklyShiftSchedule(date)" style="edgeStyle=orthogonalEdgeStyle;html=1;align=left;spacingLeft=2;endArrow=block;rounded=0;entryX=1;entryY=0;" parent="1" target="Tm_WAI8Zphne7SwSvi-d-40" edge="1">
          <mxGeometry relative="1" as="geometry">
            <mxPoint x="1500" y="900" as="sourcePoint" />
            <Array as="points">
              <mxPoint x="1530" y="900" />
            </Array>
          </mxGeometry>
        </mxCell>
        <mxCell id="Tm_WAI8Zphne7SwSvi-d-43" value="create()" style="html=1;verticalAlign=bottom;endArrow=block;" parent="1" edge="1">
          <mxGeometry width="80" relative="1" as="geometry">
            <mxPoint x="1504.9966666666664" y="940" as="sourcePoint" />
            <mxPoint x="2020" y="940" as="targetPoint" />
            <Array as="points">
              <mxPoint x="1620.33" y="940" />
              <mxPoint x="1700.33" y="940" />
            </Array>
          </mxGeometry>
        </mxCell>
        <mxCell id="Tm_WAI8Zphne7SwSvi-d-44" value="create()" style="html=1;verticalAlign=bottom;endArrow=block;" parent="1" edge="1">
          <mxGeometry width="80" relative="1" as="geometry">
            <mxPoint x="1720" y="800" as="sourcePoint" />
            <mxPoint x="1820.25" y="800" as="targetPoint" />
            <Array as="points" />
          </mxGeometry>
        </mxCell>
        <mxCell id="Tm_WAI8Zphne7SwSvi-d-45" value="shift=:getShift(date, shift-1)" style="html=1;verticalAlign=bottom;endArrow=block;" parent="1" target="Tm_WAI8Zphne7SwSvi-d-37" edge="1">
          <mxGeometry width="80" relative="1" as="geometry">
            <mxPoint x="1498.9966666666664" y="980" as="sourcePoint" />
            <mxPoint x="2014" y="980" as="targetPoint" />
            <Array as="points">
              <mxPoint x="1614.33" y="980" />
              <mxPoint x="1694.33" y="980" />
            </Array>
          </mxGeometry>
        </mxCell>
        <mxCell id="Tm_WAI8Zphne7SwSvi-d-46" value="" style="html=1;points=[];perimeter=orthogonalPerimeter;" parent="1" vertex="1">
          <mxGeometry x="2100" y="970" width="10" height="80" as="geometry" />
        </mxCell>
        <mxCell id="Tm_WAI8Zphne7SwSvi-d-47" value="Shift:&amp;nbsp;shift" style="shape=umlLifeline;perimeter=lifelinePerimeter;whiteSpace=wrap;html=1;container=1;collapsible=0;recursiveResize=0;outlineConnect=0;" parent="1" vertex="1">
          <mxGeometry x="2230" y="1000" width="170" height="520" as="geometry" />
        </mxCell>
        <mxCell id="Tm_WAI8Zphne7SwSvi-d-50" value="create()" style="html=1;verticalAlign=bottom;endArrow=block;" parent="1" edge="1">
          <mxGeometry width="80" relative="1" as="geometry">
            <mxPoint x="2110" y="1017.08" as="sourcePoint" />
            <mxPoint x="2230" y="1017" as="targetPoint" />
            <Array as="points" />
          </mxGeometry>
        </mxCell>
        <mxCell id="Tm_WAI8Zphne7SwSvi-d-51" value="" style="html=1;points=[];perimeter=orthogonalPerimeter;" parent="1" vertex="1">
          <mxGeometry x="2310" y="1060" width="10" height="80" as="geometry" />
        </mxCell>
        <mxCell id="Tm_WAI8Zphne7SwSvi-d-52" value="isWorking=:isWorking(role, ID)" style="html=1;verticalAlign=bottom;endArrow=block;entryX=-0.254;entryY=0.251;entryDx=0;entryDy=0;entryPerimeter=0;" parent="1" target="Tm_WAI8Zphne7SwSvi-d-51" edge="1">
          <mxGeometry width="80" relative="1" as="geometry">
            <mxPoint x="1503.9966666666664" y="1080" as="sourcePoint" />
            <mxPoint x="2109.5" y="1080" as="targetPoint" />
            <Array as="points">
              <mxPoint x="1619.33" y="1080" />
              <mxPoint x="1699.33" y="1080" />
            </Array>
          </mxGeometry>
        </mxCell>
        <mxCell id="Tm_WAI8Zphne7SwSvi-d-53" value="addEmployeeToShift(role,ID, date, shift)" style="html=1;verticalAlign=bottom;endArrow=block;" parent="1" edge="1">
          <mxGeometry width="80" relative="1" as="geometry">
            <mxPoint x="1500.9966666666664" y="1190" as="sourcePoint" />
            <mxPoint x="2106.5" y="1190" as="targetPoint" />
            <Array as="points">
              <mxPoint x="1616.33" y="1190" />
              <mxPoint x="1696.33" y="1190" />
            </Array>
          </mxGeometry>
        </mxCell>
        <mxCell id="Tm_WAI8Zphne7SwSvi-d-54" value="break" style="shape=umlFrame;whiteSpace=wrap;html=1;width=40;height=19;" parent="1" vertex="1">
          <mxGeometry x="1938" y="1240" width="250" height="70" as="geometry" />
        </mxCell>
        <mxCell id="Tm_WAI8Zphne7SwSvi-d-55" value="exception(&quot;&lt;span style=&quot;color: rgb(3 , 47 , 98) ; font-family: , &amp;#34;consolas&amp;#34; , &amp;#34;liberation mono&amp;#34; , &amp;#34;menlo&amp;#34; , monospace ; font-size: 12px&quot;&gt;Date is already passed&lt;/span&gt;&lt;span style=&quot;color: rgb(3 , 47 , 98) ; font-family: , &amp;#34;consolas&amp;#34; , &amp;#34;liberation mono&amp;#34; , &amp;#34;menlo&amp;#34; , monospace ; font-size: 12px&quot;&gt;.&lt;/span&gt;&quot;)" style="html=1;verticalAlign=bottom;endArrow=open;dashed=1;endSize=8;" parent="1" edge="1">
          <mxGeometry relative="1" as="geometry">
            <mxPoint x="2106.5" y="1300" as="sourcePoint" />
            <mxPoint x="1500" y="1300" as="targetPoint" />
          </mxGeometry>
        </mxCell>
        <mxCell id="Tm_WAI8Zphne7SwSvi-d-56" value="[date&amp;lt;now]" style="text;html=1;align=center;verticalAlign=middle;resizable=0;points=[];autosize=1;" parent="1" vertex="1">
          <mxGeometry x="1978" y="1240" width="70" height="20" as="geometry" />
        </mxCell>
        <mxCell id="Tm_WAI8Zphne7SwSvi-d-57" value="" style="html=1;points=[];perimeter=orthogonalPerimeter;" parent="1" vertex="1">
          <mxGeometry x="2100" y="1170" width="10" height="290" as="geometry" />
        </mxCell>
        <mxCell id="Tm_WAI8Zphne7SwSvi-d-58" value="" style="html=1;points=[];perimeter=orthogonalPerimeter;" parent="1" vertex="1">
          <mxGeometry x="2310" y="1310" width="10" height="150" as="geometry" />
        </mxCell>
        <mxCell id="Tm_WAI8Zphne7SwSvi-d-59" value="manning=:getManning()" style="html=1;verticalAlign=bottom;endArrow=block;" parent="1" target="Tm_WAI8Zphne7SwSvi-d-47" edge="1">
          <mxGeometry width="80" relative="1" as="geometry">
            <mxPoint x="2110" y="1340.08" as="sourcePoint" />
            <mxPoint x="2230" y="1340" as="targetPoint" />
            <Array as="points" />
          </mxGeometry>
        </mxCell>
        <mxCell id="Tm_WAI8Zphne7SwSvi-d-60" value="break" style="shape=umlFrame;whiteSpace=wrap;html=1;width=40;height=19;" parent="1" vertex="1">
          <mxGeometry x="1932.33" y="1350" width="250" height="70" as="geometry" />
        </mxCell>
        <mxCell id="Tm_WAI8Zphne7SwSvi-d-61" value="exception(&quot;&lt;span style=&quot;color: rgb(3 , 47 , 98) ; font-family: , &amp;#34;consolas&amp;#34; , &amp;#34;liberation mono&amp;#34; , &amp;#34;menlo&amp;#34; , monospace ; font-size: 12px&quot;&gt;Employee already exists in the current shift&lt;/span&gt;&lt;span style=&quot;color: rgb(3 , 47 , 98) ; font-family: , &amp;#34;consolas&amp;#34; , &amp;#34;liberation mono&amp;#34; , &amp;#34;menlo&amp;#34; , monospace ; font-size: 12px&quot;&gt;.&lt;/span&gt;&quot;)" style="html=1;verticalAlign=bottom;endArrow=open;dashed=1;endSize=8;" parent="1" edge="1">
          <mxGeometry relative="1" as="geometry">
            <mxPoint x="2100.83" y="1410" as="sourcePoint" />
            <mxPoint x="1500" y="1410" as="targetPoint" />
          </mxGeometry>
        </mxCell>
        <mxCell id="Tm_WAI8Zphne7SwSvi-d-62" value="[manning.role.contains(ID)]" style="text;html=1;align=center;verticalAlign=middle;resizable=0;points=[];autosize=1;" parent="1" vertex="1">
          <mxGeometry x="1927.33" y="1375" width="160" height="20" as="geometry" />
        </mxCell>
        <mxCell id="Tm_WAI8Zphne7SwSvi-d-63" value="addEmployee(role,ID)" style="html=1;verticalAlign=bottom;endArrow=block;" parent="1" edge="1">
          <mxGeometry width="80" relative="1" as="geometry">
            <mxPoint x="2110" y="1440" as="sourcePoint" />
            <mxPoint x="2314.5" y="1440" as="targetPoint" />
            <Array as="points" />
          </mxGeometry>
        </mxCell>
        <mxCell id="Tm_WAI8Zphne7SwSvi-d-64" value="Singleton EmployeeController: instance" style="shape=umlLifeline;perimeter=lifelinePerimeter;whiteSpace=wrap;html=1;container=1;collapsible=0;recursiveResize=0;outlineConnect=0;" parent="1" vertex="1">
          <mxGeometry x="2380" y="50" width="170" height="1470" as="geometry" />
        </mxCell>
        <mxCell id="Tm_WAI8Zphne7SwSvi-d-65" value="insert(DalShift)" style="html=1;verticalAlign=bottom;endArrow=block;" parent="1" edge="1">
          <mxGeometry width="80" relative="1" as="geometry">
            <mxPoint x="2320" y="1450" as="sourcePoint" />
            <mxPoint x="2460" y="1450" as="targetPoint" />
            <Array as="points" />
          </mxGeometry>
        </mxCell>
      </root>
    </mxGraphModel>
  </diagram>
</mxfile>
